# xmcd
#
# Track frame offsets:
#	182
#	19095
#	36267
#	50382
#	63125
#	78512
#	91945
#	106667
#	118610
#	134025
#	169405
#
# Disc length: 2458 seconds
# Revision: 21
# Processed by: cddbd v1.5.2PL0 Copyright (c) Steve Scherf et al.
# Submitted via: dBpowerAMP V12.0
#
DISCID=8c09980b
DTITLE=Various Artist - The Blues Brothers
DYEAR=1980
DGENRE=Soundtrack
TTITLE0=Blues Brothers, The - She Caught The Katy
TTITLE1=Blues Brothers, The - Peter Gunn Theme
TTITLE2=Blues Brothers, The - Gimme Some Lovin'
TTITLE3=Ray Charles - Shake A Tail Feather
TTITLE4=Blues Brothers, The - Everybody Needs Somebody To Love
TTITLE5=James Brown • Rev. James Cleveland CHoir - The Old Landmark
TTITLE6=Aretha Franklin - Think
TTITLE7=Blues Brothers, The - Theme From Rawhide
TTITLE8=Cab Calloway - Minnie The Moocher
TTITLE9=Blues Brothers, The - Sweet Home Chicago
TTITLE10=Blues Brothers, The - Jailhouse Rock
EXTD=
EXTT0=
EXTT1=
EXTT2=
EXTT3=
EXTT4=
EXTT5=
EXTT6=
EXTT7=
EXTT8=
EXTT9=
EXTT10=
PLAYORDER=
